<?xml version="1.0" encoding="utf-8"?>
<!-- Generator: Adobe Illustrator 16.2.1, SVG Export Plug-In . SVG Version: 6.00 Build 0)  -->
<!DOCTYPE svg PUBLIC "-//W3C//DTD SVG 1.1//EN" "http://www.w3.org/Graphics/SVG/1.1/DTD/svg11.dtd">
<svg version="1.1" id="Layer_1" xmlns="http://www.w3.org/2000/svg" xmlns:xlink="http://www.w3.org/1999/xlink" x="0px" y="0px"
	 width="382.55px" height="105.37px" viewBox="0 0 382.55 105.37" enable-background="new 0 0 382.55 105.37" xml:space="preserve">
<g>
	<path fill="#BFD730" d="M217.06,97.851c-0.055,0-0.11-0.014-0.16-0.044c-0.701-0.406-64.663-41.541-152.959-41.541
		c-35.82,0-47.307,1.935-59.098,2.939c-0.008,0-0.018,0-0.027,0c-0.155,0-0.292-0.112-0.315-0.269
		c-0.025-0.165,0.083-0.323,0.245-0.358c0.244-0.055,25.118-8.202,59.505-8.202c35.401,0,96.49,8.068,152.994,46.898
		c0.141,0.097,0.174,0.288,0.083,0.431C217.267,97.798,217.166,97.851,217.06,97.851L217.06,97.851z"/>
	<g>
		<path fill="#0089CF" d="M223.61,22.783c-1.765,0-5.904-0.458-6.221-4.708l-0.012-0.16l0.159-0.018l2.046-0.245l0.178-0.021
			l0.007,0.18c0.022,0.474,0.068,1.584,1.094,2.428c0.693,0.562,1.646,0.846,2.832,0.846c1.642,0,3.398-0.653,3.398-2.479
			c0-1.301-0.986-1.75-2.58-2.05l-1.194-0.224c-1.958-0.373-5.239-0.997-5.239-3.933c0-1.322,0.748-2.197,1.378-2.698
			c1.464-1.162,3.323-1.162,3.933-1.162c1.058,0,2.613,0.104,3.941,1.005c1.528,1.032,1.787,2.512,1.912,3.222l0.034,0.184
			l-0.188,0.01l-1.923,0.111L227,13.079l-0.009-0.166c-0.023-0.412-0.071-1.379-1.083-2.065c-0.611-0.41-1.415-0.609-2.459-0.609
			c-1.417,0-3.075,0.501-3.075,1.917c0,1.326,1.487,1.645,2.683,1.899l1.585,0.377l0.455,0.1c0.824,0.183,1.321,0.292,1.815,0.487
			c2.242,0.861,2.576,2.534,2.576,3.453c0,1.403-0.657,2.561-1.9,3.349C226.554,22.469,225.254,22.783,223.61,22.783L223.61,22.783z
			"/>
		<path fill="#0089CF" d="M236.026,22.709c-3.592,0-4.864-2.573-4.864-4.778c0-2.273,1.289-4.93,4.923-4.93
			c1.402,0,2.588,0.446,3.431,1.297c0.87,0.876,1.343,2.14,1.332,3.558C240.827,20.759,238.887,22.709,236.026,22.709
			L236.026,22.709z M236.125,14.533c-2.498,0-2.873,2.14-2.873,3.416c0,0.969,0.269,3.23,2.753,3.23c2.207,0,2.713-1.812,2.749-3.33
			c0.02-0.564-0.042-0.959-0.097-1.193C238.271,14.81,236.904,14.533,236.125,14.533L236.125,14.533z"/>
		<path fill="#0089CF" d="M247.243,22.707c-3.636,0-4.925-2.562-4.925-4.758c0-2.283,1.254-4.948,4.784-4.948
			c1.137,0,3.861,0.3,4.575,3.086l0.048,0.19l-0.194,0.017l-1.781,0.151l-0.153,0.013l-0.026-0.15
			c-0.098-0.567-0.533-1.887-2.41-1.887c-2.372,0-2.728,2.141-2.728,3.415c0,0.945,0.206,1.736,0.596,2.287
			c0.5,0.738,1.25,1.11,2.234,1.11c2.19,0,2.429-1.62,2.529-2.312l0.021-0.153l0.156,0.011l1.744,0.149l0.18,0.017l-0.031,0.178
			c-0.051,0.292-0.147,0.833-0.568,1.553C250.505,22.025,249.144,22.707,247.243,22.707L247.243,22.707z"/>
		<path fill="#0089CF" d="M255.569,22.445h-0.166h-1.561h-0.166V22.28v-8.833v-0.166h0.166h1.561h0.166v0.166v8.833V22.445
			L255.569,22.445z M255.569,10.934h-0.166h-1.561h-0.166v-0.166V9.043V8.877h0.166h1.561h0.166v0.166v1.725V10.934L255.569,10.934z
			"/>
		<path fill="#0089CF" d="M262.328,22.707c-2.989,0-4.846-1.887-4.846-4.926c0-3.285,2.48-4.78,4.785-4.78
			c1.705,0,3.743,0.855,4.351,3.257c0.189,0.772,0.189,1.467,0.189,1.839v0.168h-0.167h-7.081c0.013,0.841,0.325,1.651,0.844,2.188
			c0.515,0.53,1.21,0.798,2.067,0.798c1.656,0,2.196-1.215,2.369-1.937l0.035-0.144l0.147,0.019l1.641,0.207l0.207,0.024
			l-0.076,0.212C265.855,22.173,263.846,22.707,262.328,22.707L262.328,22.707z M259.621,16.866h5.076
			c-0.231-2.269-2.157-2.387-2.549-2.387C260.793,14.479,259.837,15.389,259.621,16.866L259.621,16.866z"/>
		<path fill="#0089CF" d="M271.318,22.596c-0.796,0-1.312-0.149-1.625-0.468c-0.405-0.411-0.395-1.041-0.383-1.708v-5.566h-1.353
			h-0.166v-0.166v-1.239v-0.165h0.166h1.353v-2.628v-0.166h0.166h1.66h0.167v0.166v2.628h1.573h0.166v0.165v1.239v0.166h-0.166
			h-1.573v4.895c0,1.149,0.036,1.335,0.523,1.335c0.222,0,0.55-0.066,1.004-0.197l0.212-0.063v0.223v1.236v0.145l-0.144,0.019
			l-0.135,0.019C272.423,22.514,271.854,22.596,271.318,22.596L271.318,22.596z"/>
		<path fill="#0089CF" d="M275.39,26.814c-0.658,0-1.161-0.114-1.524-0.215l-0.125-0.031v-0.127V25.11v-0.215l0.237,0.061
			c0.214,0.054,0.538,0.14,0.962,0.14c1.04,0,1.274-0.504,1.751-1.751l0.402-1.065l-3.242-8.771l-0.079-0.224h0.235h1.723h0.119
			l0.038,0.112l2.238,6.564l2.368-6.565l0.042-0.111h0.115h1.682h0.241l-0.087,0.226l-4.011,10.443
			C277.792,25.727,277.277,26.814,275.39,26.814L275.39,26.814z"/>
		<path fill="#0089CF" d="M292.017,22.447h-0.166h-1.56h-0.169v-0.167v-7.427h-1.431h-0.166v-0.167v-1.238v-0.167h0.166h1.434
			l0.018-1.638c0.021-0.739,0.076-2.674,2.639-2.674c0.384,0,0.725,0.048,1.004,0.087l0.191,0.025l0.146,0.018v0.147v1.165v0.188
			l-0.189-0.024c-0.296-0.036-0.652-0.073-0.87-0.073c-0.97,0-1.047,0.611-1.047,1.408v1.37h1.635h0.167v0.167v1.238v0.167h-0.167
			h-1.635v7.427V22.447L292.017,22.447z"/>
		<path fill="#0089CF" d="M299.666,22.709c-3.59,0-4.866-2.575-4.866-4.778c0-2.275,1.293-4.932,4.928-4.932
			c1.402,0,2.589,0.45,3.432,1.297c0.869,0.877,1.341,2.142,1.332,3.56C304.468,20.759,302.527,22.709,299.666,22.709
			L299.666,22.709z M299.77,14.535c-2.5,0-2.873,2.14-2.873,3.414c0,0.969,0.269,3.227,2.749,3.227c2.215,0,2.718-1.809,2.749-3.323
			c0.022-0.563-0.041-0.961-0.095-1.197C301.915,14.808,300.55,14.535,299.77,14.535L299.77,14.535z"/>
		<path fill="#0089CF" d="M308.44,22.445h-0.167h-1.622h-0.167v-0.166v-8.832V13.28h0.167h1.622h0.167v0.167v1.056
			c0.988-1.278,2.496-1.318,3.101-1.333l0.172-0.003l0.006,0.168v1.614v0.182l-0.187-0.017c-0.197-0.019-0.394-0.036-0.647-0.036
			c-0.92,0-1.656,0.347-2.067,0.975c-0.382,0.585-0.382,1.292-0.377,2.038v4.188V22.445L308.44,22.445z"/>
		<polygon fill="#0089CF" points="231.418,44.006 231.253,44.006 229.37,44.006 229.199,44.006 229.204,43.837 229.447,33.643 
			225.271,43.903 225.231,44.006 225.117,44.006 223.64,44.006 223.527,44.006 223.487,43.903 219.385,33.801 219.573,43.838 
			219.578,44.006 219.407,44.006 217.543,44.006 217.377,44.006 217.377,43.841 217.377,30.605 217.377,30.439 217.543,30.439 
			219.995,30.439 220.108,30.439 220.148,30.544 224.387,41.019 228.651,30.544 228.691,30.439 228.803,30.439 231.253,30.439 
			231.418,30.439 231.418,30.605 231.418,43.841 231.418,44.006 		"/>
		<path fill="#0089CF" d="M235.947,44.008h-0.167h-1.561h-0.166v-0.167v-8.83v-0.165h0.166h1.561h0.167v0.165v8.83V44.008
			L235.947,44.008z M235.947,32.497h-0.167h-1.561h-0.166v-0.166v-1.726v-0.166h0.166h1.561h0.167v0.166v1.726V32.497
			L235.947,32.497z"/>
		<path fill="#0089CF" d="M246.617,44.008h-0.166h-1.598h-0.167v-0.167v-5.025c0-0.869,0-1.134-0.093-1.408
			c-0.273-0.814-1.156-1.106-1.888-1.106c-0.693,0-1.254,0.207-1.71,0.632c-0.656,0.604-0.656,1.216-0.656,1.865v5.042v0.167h-0.166
			h-1.617h-0.165v-0.167v-8.83v-0.166h0.165h1.617h0.166v0.166v0.783c0.932-1.101,2.248-1.231,2.812-1.231
			c1.207,0,2.793,0.562,3.298,2.14c0.168,0.55,0.168,1.104,0.168,1.87v5.268V44.008L246.617,44.008z"/>
		<path fill="#0089CF" d="M251.114,44.008h-0.166h-1.561h-0.166v-0.167V35.01v-0.166h0.166h1.561h0.166v0.166v8.832V44.008
			L251.114,44.008z M251.114,32.496h-0.166h-1.561h-0.166v-0.166v-1.725v-0.166h0.166h1.561h0.166v0.166v1.725V32.496
			L251.114,32.496z"/>
		<path fill="#0089CF" d="M261.784,44.009h-0.166h-1.599h-0.166v-0.167v-5.024c0-0.873,0-1.138-0.091-1.41
			c-0.275-0.814-1.155-1.106-1.891-1.106c-0.692,0-1.254,0.207-1.709,0.632c-0.656,0.604-0.656,1.218-0.656,1.865v5.043v0.167
			h-0.167h-1.619h-0.167v-0.167v-8.831v-0.166h0.167h1.619h0.167v0.166v0.782c0.93-1.1,2.246-1.23,2.811-1.23
			c1.208,0,2.794,0.562,3.297,2.142c0.168,0.552,0.168,1.103,0.168,1.869v5.269V44.009L261.784,44.009z"/>
		<path fill="#0089CF" d="M268.806,48.303c-1.167,0-2.262-0.284-3.007-0.781c-1.246-0.824-1.441-2.084-1.526-2.622l-0.028-0.193
			l0.188-0.04h1.826h0.168l-0.003,0.169c-0.007,0.348,0.068,0.845,0.471,1.257c0.426,0.434,1.106,0.657,2.015,0.657
			c1.051,0,1.621-0.323,1.914-0.596c0.525-0.52,0.532-1.104,0.552-2.514v-0.638c-0.778,0.831-1.796,1.268-2.972,1.268
			c-2.279,0-4.579-1.485-4.579-4.799c0-3.391,2.309-4.91,4.598-4.91c1.105,0,2.099,0.413,2.953,1.223v-0.774v-0.167h0.166h1.682
			h0.166v0.167v8.343c0,1.094,0.002,2.217-0.614,3.167C272.077,47.653,270.63,48.303,268.806,48.303L268.806,48.303z
			 M268.565,36.246c-1.671,0.017-2.75,1.26-2.75,3.171c0,0.35,0,1.412,0.632,2.204c0.659,0.816,1.571,0.987,2.216,0.987
			c0.973,0,1.689-0.344,2.196-1.056c0.39-0.542,0.595-1.326,0.595-2.265C271.455,36.468,269.245,36.246,268.565,36.246
			L268.565,36.246z"/>
		<path fill="#0089CF" d="M277.28,46.934h-0.111h-0.93h-0.249l0.094-0.229c0.346-0.845,0.557-1.75,0.625-2.696h-0.693h-0.166v-0.167
			v-2.042v-0.166h0.166h2.007h0.167v0.166v0.955c-0.046,1.82-0.248,2.578-0.866,4.075L277.28,46.934L277.28,46.934z"/>
		<polygon fill="#0089CF" points="300.52,44.009 300.353,44.009 298.47,44.009 298.301,44.009 298.304,43.838 298.546,33.649 
			294.372,43.905 294.329,44.009 294.217,44.009 292.741,44.009 292.63,44.009 292.586,43.905 288.49,33.809 288.674,43.84 
			288.676,44.009 288.506,44.009 286.648,44.009 286.481,44.009 286.481,43.842 286.481,30.606 286.481,30.439 286.648,30.439 
			289.096,30.439 289.208,30.439 289.25,30.544 293.491,41.018 297.748,30.544 297.792,30.439 297.903,30.439 300.353,30.439 
			300.52,30.439 300.52,30.606 300.52,43.842 300.52,44.009 		"/>
		<path fill="#0089CF" d="M307.381,44.271c-2.987,0-4.844-1.889-4.844-4.928c0-3.284,2.48-4.78,4.783-4.78
			c1.705,0,3.744,0.857,4.354,3.257c0.188,0.772,0.188,1.466,0.188,1.839v0.167h-0.167h-7.083c0.013,0.844,0.325,1.652,0.846,2.189
			c0.517,0.529,1.208,0.796,2.065,0.796c1.655,0,2.195-1.212,2.369-1.934l0.037-0.145l0.148,0.019l1.64,0.206l0.207,0.027
			l-0.079,0.212C310.904,43.737,308.899,44.271,307.381,44.271L307.381,44.271z M304.674,38.427h5.079
			c-0.233-2.268-2.162-2.386-2.553-2.386C305.847,36.041,304.891,36.95,304.674,38.427L304.674,38.427z"/>
		<path fill="#0089CF" d="M316.371,44.159c-0.796,0-1.312-0.149-1.623-0.467c-0.409-0.413-0.396-1.043-0.384-1.709v-5.566h-1.354
			h-0.167v-0.167v-1.237v-0.167h0.167h1.354v-2.627v-0.167h0.167h1.659h0.167v0.167v2.627h1.574h0.167v0.167v1.237v0.167h-0.167
			h-1.574v4.896c0,1.148,0.033,1.332,0.523,1.332c0.285,0,0.709-0.114,1.005-0.198l0.213-0.06v0.22v1.237v0.146l-0.146,0.02
			l-0.139,0.019C317.473,44.077,316.907,44.159,316.371,44.159L316.371,44.159z"/>
		<path fill="#0089CF" d="M323.094,44.253c-1.973,0-3.407-1.134-3.407-2.698c0-0.519,0.16-1.013,0.458-1.428
			c0.519-0.71,1.428-1.4,4.539-1.626l1.364-0.099v-0.074c0-0.912,0-2.288-1.98-2.288c-1.879,0-1.879,1.227-1.879,1.689v0.174
			l-0.175-0.009l-1.702-0.095l-0.178-0.01l0.032-0.253c0.038-0.32,0.098-0.804,0.399-1.318c0.617-1.069,1.842-1.657,3.441-1.657
			c0.428,0,1.896,0.058,2.893,0.785c1.139,0.848,1.119,1.951,1.103,3.117v2.866c0.021,0.945,0.062,1.108,0.522,1.108
			c0.163,0,0.328-0.029,0.465-0.083l0.227-0.089v0.245v1.295v0.133l-0.133,0.029l-0.151,0.034c-0.224,0.052-0.5,0.121-0.895,0.121
			c-0.966,0-1.542-0.379-1.762-1.156C325.73,43.478,324.741,44.253,323.094,44.253L323.094,44.253z M326.066,39.703l-0.076,0.011
			c-0.593,0.086-1.346,0.195-2.236,0.372c-1.721,0.345-1.952,0.917-1.952,1.431c0,0.698,0.643,1.146,1.637,1.146
			c1.134,0,1.98-0.438,2.382-1.24C326.034,40.998,326.064,40.831,326.066,39.703L326.066,39.703z"/>
		<polygon fill="#0089CF" points="332.593,44.006 332.43,44.006 330.871,44.006 330.705,44.006 330.705,43.842 330.705,30.604 
			330.705,30.439 330.871,30.439 332.43,30.439 332.593,30.439 332.593,30.604 332.593,43.842 332.593,44.006 		"/>
		<polygon fill="#0089CF" points="337.009,44.008 336.845,44.008 335.281,44.008 335.118,44.008 335.118,43.842 335.118,30.604 
			335.118,30.439 335.281,30.439 336.845,30.439 337.009,30.439 337.009,30.604 337.009,43.842 337.009,44.008 		"/>
		<path fill="#0089CF" d="M342.696,44.231c-1.318,0-2.061-0.518-2.452-0.952c-0.731-0.777-0.731-1.599-0.731-3.092v-5.175v-0.165
			h0.165h1.603h0.166v0.165v5.042c0,0.909,0,0.981,0.036,1.19c0.146,1.037,1.026,1.253,1.739,1.253c0.84,0,1.599-0.296,2.021-0.79
			c0.549-0.595,0.549-1.226,0.549-2.271v-4.425v-0.165h0.165h1.601h0.166v0.165v8.831v0.166h-0.166h-1.601h-0.165v-0.166V42.94
			C345.297,43.459,344.332,44.231,342.696,44.231L342.696,44.231z"/>
		<path fill="#0089CF" d="M352.217,44.008h-0.166h-1.62h-0.167v-0.167v-8.83v-0.165h0.167h1.62h0.166v0.165v1.056
			c0.986-1.271,2.49-1.318,3.094-1.334l0.17-0.006l0.016,0.171v1.614v0.181l-0.183-0.018c-0.196-0.018-0.394-0.036-0.65-0.036
			c-0.922,0-1.66,0.346-2.069,0.974c-0.377,0.585-0.377,1.286-0.377,2.029v4.2V44.008L352.217,44.008z"/>
		<path fill="#0089CF" d="M361.307,48.301c-1.168,0-2.265-0.283-3.011-0.775c-1.25-0.833-1.442-2.092-1.523-2.628l-0.028-0.192
			l0.188-0.034h1.819h0.171l-0.005,0.168c-0.005,0.346,0.07,0.843,0.475,1.252c0.427,0.438,1.104,0.662,2.016,0.662
			c1.048,0,1.617-0.325,1.912-0.595c0.521-0.521,0.532-1.102,0.552-2.509l0.002-0.647c-0.78,0.832-1.799,1.267-2.974,1.267
			c-2.28,0-4.579-1.481-4.579-4.795c0-3.392,2.309-4.911,4.599-4.911c1.107,0,2.101,0.41,2.954,1.222v-0.773v-0.165h0.165h1.681
			h0.166v0.165v8.343c0.003,1.088,0.003,2.214-0.615,3.167C364.576,47.653,363.129,48.301,361.307,48.301L361.307,48.301z
			 M361.063,36.245c-1.671,0.018-2.752,1.263-2.752,3.173c0,0.348,0,1.409,0.63,2.202c0.661,0.816,1.575,0.988,2.223,0.988
			c0.97,0,1.688-0.345,2.192-1.056c0.492-0.686,0.598-1.61,0.598-2.266C363.954,36.467,361.742,36.245,361.063,36.245
			L361.063,36.245z"/>
		<path fill="#0089CF" d="M368.898,48.375c-0.669,0-1.166-0.112-1.521-0.209l-0.122-0.034v-0.126v-1.33v-0.211l0.24,0.057
			c0.214,0.053,0.536,0.137,0.958,0.137c1.039,0,1.273-0.504,1.749-1.749l0.404-1.069l-3.24-8.772l-0.081-0.22h0.238h1.719h0.119
			l0.04,0.111l2.237,6.566l2.371-6.568l0.037-0.109h0.118h1.68h0.241l-0.084,0.224l-4.011,10.44
			C371.305,47.288,370.789,48.375,368.898,48.375L368.898,48.375z"/>
		<path fill="#0089CF" d="M221.453,65.736c-1.978,0-4.076-1.327-4.076-3.783c0-0.51,0.078-0.973,0.232-1.372
			c0.329-0.873,1.076-1.731,1.955-2.239c0.062-0.043,0.266-0.156,0.489-0.279c0.213-0.116,0.447-0.246,0.585-0.333
			c-0.506-1.269-0.628-1.601-0.628-2.377c0-1.875,1.415-3.237,3.365-3.237c1.78,0,3.121,1.199,3.121,2.789
			c0,1.944-1.907,2.995-3.056,3.576c0.633,1.142,1.213,2.095,1.803,2.971c0.524-0.996,0.747-1.905,0.804-2.176l0.029-0.128h0.134
			h1.537h0.193l-0.027,0.187c-0.1,0.703-0.427,2.094-1.489,3.654c0.297,0.31,0.852,0.827,1.75,0.827c0.165,0,0.301-0.02,0.42-0.037
			l0.149-0.021l0.183-0.018v0.185v1.557v0.139l-0.166,0.029c-0.201,0.036-0.405,0.072-0.748,0.072c-1.507,0-2.392-0.669-2.997-1.292
			C223.82,65.321,222.682,65.736,221.453,65.736L221.453,65.736z M221.454,59.303c-0.966,0.444-2.046,1.221-2.046,2.464
			c0,0.885,0.739,2.196,2.328,2.196c0.988,0,1.678-0.488,2.12-0.841C223.36,62.417,222,60.341,221.454,59.303L221.454,59.303z
			 M223.376,53.57c-0.694,0-1.396,0.504-1.396,1.465c0,0.532,0.289,1.282,0.582,1.85c0.801-0.345,1.985-1.048,1.985-2.168
			C224.546,53.93,223.94,53.57,223.376,53.57L223.376,53.57z"/>
		<polygon fill="#0089CF" points="246.781,65.571 246.616,65.571 236.51,65.571 236.344,65.571 236.344,65.404 236.344,52.165 
			236.344,51.999 236.51,51.999 246.373,51.999 246.538,51.999 246.538,52.165 246.538,53.722 246.538,53.888 246.373,53.888 
			238.519,53.888 238.519,57.644 245.317,57.644 245.482,57.644 245.482,57.81 245.482,59.364 245.482,59.53 245.317,59.53 
			238.519,59.53 238.519,63.7 246.616,63.7 246.781,63.7 246.781,63.866 246.781,65.404 246.781,65.571 		"/>
		<polygon fill="#0089CF" points="255.503,65.568 255.2,65.568 253.377,65.568 253.286,65.568 253.238,65.492 251.354,62.562 
			249.507,65.492 249.459,65.568 249.368,65.568 247.524,65.568 247.215,65.568 247.387,65.312 250.304,60.92 247.547,56.665 
			247.381,56.407 247.687,56.407 249.55,56.407 249.642,56.407 249.692,56.485 251.456,59.296 253.238,56.485 253.286,56.407 
			253.377,56.407 255.2,56.407 255.508,56.407 255.34,56.665 252.521,60.925 255.34,65.314 255.503,65.568 		"/>
		<path fill="#0089CF" d="M258.646,69.752h-0.167h-1.599h-0.166v-0.166V56.571v-0.166h0.166h1.599h0.167v0.166v0.841
			c0.185-0.193,0.362-0.358,0.638-0.53c0.707-0.46,1.728-0.756,2.597-0.756c2.216,0,4.46,1.673,4.46,4.871
			c0,2.938-1.823,4.835-4.643,4.835c-1.232,0-2.28-0.371-3.052-1.074v4.829V69.752L258.646,69.752z M261.572,57.862l-0.147,0.001
			c-1.713,0.052-2.778,1.305-2.778,3.265c0,1.917,1.048,3.06,2.81,3.06c0.644,0,1.182-0.125,1.597-0.371
			c0.304-0.183,1.298-0.931,1.298-2.838C264.351,59.057,263.286,57.862,261.572,57.862L261.572,57.862z"/>
		<polygon fill="#0089CF" points="270.229,65.571 270.063,65.571 268.503,65.571 268.338,65.571 268.338,65.403 268.338,52.167 
			268.338,52 268.503,52 270.063,52 270.229,52 270.229,52.167 270.229,65.403 270.229,65.571 		"/>
		<path fill="#0089CF" d="M277.09,65.832c-3.592,0-4.865-2.575-4.865-4.78c0-2.271,1.29-4.926,4.924-4.926
			c1.404,0,2.591,0.448,3.434,1.297c0.869,0.876,1.343,2.139,1.33,3.557C281.89,63.881,279.95,65.832,277.09,65.832L277.09,65.832z
			 M277.192,57.656c-2.499,0-2.873,2.14-2.873,3.416c0,0.969,0.268,3.228,2.752,3.228c2.212,0,2.715-1.809,2.747-3.324
			c0.019-0.557-0.04-0.957-0.096-1.198C279.335,57.93,277.971,57.656,277.192,57.656L277.192,57.656z"/>
		<path fill="#0089CF" d="M285.862,65.569h-0.166h-1.621h-0.166v-0.167v-8.83v-0.167h0.166h1.621h0.166v0.167v1.055
			c0.987-1.27,2.489-1.316,3.092-1.335l0.173-0.005l0.017,0.171v1.613v0.183l-0.184-0.018c-0.199-0.018-0.396-0.037-0.651-0.037
			c-0.925,0-1.659,0.348-2.067,0.976c-0.381,0.586-0.381,1.293-0.379,2.039v4.188V65.569L285.862,65.569z"/>
		<path fill="#0089CF" d="M293.189,65.814c-1.976,0-3.411-1.135-3.411-2.698c0-0.512,0.164-1.021,0.459-1.429
			c0.495-0.676,1.421-1.399,4.537-1.626l1.366-0.1v-0.069c0-0.914,0-2.29-1.982-2.29c-1.879,0-1.879,1.227-1.879,1.688v0.177
			l-0.176-0.01l-1.7-0.094l-0.176-0.01l0.029-0.239c0.038-0.324,0.097-0.81,0.399-1.332c0.62-1.068,1.842-1.656,3.443-1.656
			c0.875,0,2.095,0.206,2.89,0.782c1.143,0.854,1.124,1.953,1.102,3.118v2.867c0.023,0.944,0.064,1.107,0.524,1.107
			c0.165,0,0.329-0.029,0.464-0.082l0.228-0.089v0.243v1.293v0.133l-0.131,0.029l-0.14,0.033c-0.237,0.057-0.506,0.122-0.906,0.122
			c-0.967,0-1.547-0.377-1.765-1.153C295.822,65.037,294.831,65.814,293.189,65.814L293.189,65.814z M296.161,61.264l-0.141,0.02
			c-0.583,0.087-1.315,0.194-2.172,0.365c-1.719,0.34-1.952,0.916-1.952,1.431c0,0.697,0.643,1.145,1.635,1.145
			c1.132,0,1.978-0.439,2.383-1.239C296.128,62.559,296.159,62.391,296.161,61.264L296.161,61.264z"/>
		<path fill="#0089CF" d="M303.332,65.719c-0.798,0-1.312-0.148-1.625-0.466c-0.407-0.414-0.396-1.042-0.385-1.708v-5.566h-1.35
			h-0.167v-0.167v-1.237v-0.167h0.167h1.35v-2.629v-0.166h0.167h1.663h0.168v0.166v2.629h1.57h0.167v0.167v1.237v0.167h-0.167h-1.57
			v4.894c0,1.148,0.032,1.331,0.52,1.331c0.221,0,0.56-0.064,1.006-0.195l0.211-0.063v0.223v1.235v0.146l-0.145,0.019l-0.13,0.02
			C304.438,65.635,303.869,65.719,303.332,65.719L303.332,65.719z"/>
		<path fill="#0089CF" d="M308.866,65.571h-0.167h-1.56h-0.167v-0.167v-8.831v-0.167h0.167h1.56h0.167v0.167v8.831V65.571
			L308.866,65.571z M308.866,54.058h-0.167h-1.56h-0.167v-0.167v-1.724v-0.167h0.167h1.56h0.167v0.167v1.724V54.058L308.866,54.058z
			"/>
		<path fill="#0089CF" d="M315.663,65.832c-3.59,0-4.865-2.576-4.865-4.779c0-2.273,1.292-4.929,4.923-4.929
			c1.406,0,2.594,0.452,3.436,1.299c0.868,0.877,1.34,2.139,1.332,3.557C320.467,63.881,318.53,65.832,315.663,65.832
			L315.663,65.832z M315.762,57.657c-2.495,0-2.868,2.139-2.868,3.415c0,0.971,0.266,3.225,2.75,3.225
			c2.205,0,2.71-1.807,2.747-3.324c0.021-0.57-0.042-0.963-0.098-1.195C317.909,57.93,316.542,57.657,315.762,57.657L315.762,57.657
			z"/>
		<path fill="#0089CF" d="M330.712,65.571h-0.167h-1.598h-0.167v-0.168v-5.025c0-0.871,0-1.135-0.092-1.409
			c-0.274-0.816-1.156-1.105-1.887-1.105c-0.694,0-1.252,0.206-1.709,0.63c-0.656,0.608-0.656,1.22-0.656,1.866v5.043v0.168h-0.167
			h-1.62h-0.167v-0.168v-8.831v-0.167h0.167h1.62h0.167v0.167v0.782c0.931-1.101,2.245-1.23,2.809-1.23
			c1.208,0,2.797,0.561,3.294,2.142c0.173,0.552,0.173,1.105,0.173,1.87v5.268V65.571L330.712,65.571z"/>
	</g>
	<g>
		<path fill="#0089CF" d="M338.917,65.569c-1.783,0-3.422-1.398-3.422-3.422c0-1.986,1.57-3.441,3.422-3.441
			c1.995,0,3.45,1.571,3.44,3.45C342.347,64.056,340.854,65.569,338.917,65.569z M338.936,59.015c-1.764,0-3.133,1.407-3.133,3.132
			c0,1.745,1.408,3.113,3.123,3.113c1.755,0,3.114-1.378,3.123-3.104C342.057,60.441,340.718,59.015,338.936,59.015z M338.877,59.95
			c0.444,0,0.743,0.01,1.013,0.105c0.462,0.165,0.693,0.589,0.693,1.003c0,0.55-0.337,0.887-0.887,1.032
			c0.347,0.154,0.521,0.318,0.617,0.906c0.098,0.656,0.135,0.896,0.329,1.282h-0.876c-0.04-0.068-0.107-0.222-0.175-0.598
			c-0.019-0.096-0.086-0.559-0.106-0.665c-0.115-0.617-0.414-0.665-0.974-0.675h-0.269v1.938h-0.771V59.95H338.877z M338.25,61.724
			h0.637c0.308,0,0.925,0.009,0.925-0.598c0-0.165-0.068-0.404-0.308-0.511c-0.155-0.067-0.251-0.067-0.762-0.067h-0.492V61.724z"/>
	</g>
	<path fill="#0089CF" d="M45.841,65.729c-1.717,0-3.413-0.078-5.183-0.238c-4.295-0.404-5.746-0.899-8.9-2.078
		c-0.234-0.087-0.357-0.347-0.275-0.584c1.021-2.975,1.579-3.266,2.203-8.474c0.022-0.184,0.152-0.338,0.331-0.39
		c0.042-0.013,0.086-0.019,0.129-0.019c0.137,0,0.27,0.061,0.359,0.17l0.1,0.124c2.025,2.485,3.992,4.649,11.553,4.649
		c5.369,0,11.638-2.253,11.638-8.603c0-4.802-4.453-6.9-8.758-8.928l-0.072-0.034l-7.742-3.953
		c-3.703-2.076-9.113-4.561-9.113-12.863c0-10.18,7.236-17.019,19.766-17.019c5.531,0,13.904,2.009,14.98,2.144
		c0.134,0.017,0.253,0.09,0.328,0.202s0.097,0.25,0.062,0.38c-1.089,3.953-1.495,4.14-1.655,8.452
		c-0.007,0.188-0.127,0.353-0.304,0.418c-0.051,0.019-0.105,0.028-0.159,0.028c-0.128,0-0.253-0.052-0.342-0.151
		c-1.519-1.665-6.541-4.477-13.463-4.477c-7.289,0-8.774,4.378-8.774,8.445c0,4.917,3.428,6.427,7.088,8.213l4.96,2.292
		c6.499,3.044,13.22,6.191,13.22,14.879c0,4.656-1.766,8.891-4.97,11.926C60.731,62.29,55.703,65.729,45.841,65.729z"/>
	<path fill="#0089CF" d="M81.268,50.96c0.299-4.188,0.488-9.046,0.777-15.802l0.155-3.634l0.158-8.07
		c0.23-12.105-1.542-13.727-2.494-14.598l-0.04-0.037c-0.146-0.134-0.191-0.347-0.11-0.528c0.075-0.168,0.241-0.276,0.423-0.276
		c0.014,0,0.028,0.001,0.042,0.002l0.224,0.02c2.551,0.23,4.96,0.449,7.469,0.449c2.225,0,4.486-0.2,6.879-0.412l0.657-0.057
		c0.013-0.001,0.027-0.002,0.041-0.002c0.216,0,0.406,0.15,0.452,0.365c1.35,6.234,2.125,8.522,4.167,14.221l6.167,16.002
		c1.832,4.898,3.098,7.797,4.229,11.317c1.236-3.725,3.114-8.052,4.632-11.907c0.444-1.13,0.938-2.167,1.337-3.117l6.135-15.93
		c1.876-4.662,2.508-6.234,3.527-10.594c0.049-0.212,0.238-0.357,0.45-0.357c0.027,0,0.055,0.003,0.082,0.008
		c1.675,0.303,2.998,0.542,5.996,0.542c2.929,0,5.727-0.292,7.836-0.546c0.018-0.002,0.037-0.003,0.056-0.003
		c0.142,0,0.278,0.065,0.366,0.18c0.1,0.129,0.125,0.301,0.064,0.453c-1.354,3.442-1.861,4.729-1.941,12.153
		c-0.231,25.172-0.178,33.324,0.627,38.842c0.085,0.783,0.102,0.995,0.218,1.519c0,0-2.74-0.797-5.235-1.435
		c-2.496-0.638-5.291-1.34-5.291-1.34c0.329-2.768,0.468-6.387,0.468-12.408V31.308c0-5.216,0.094-9.419,0.279-12.556
		c-0.363,0.882-0.805,1.924-1.36,3.231c-0.848,2.002-2.012,4.745-3.553,8.482l-9.846,24.884c0,0-3.146-0.646-6.5-1.162
		c-3.353-0.516-6.546-1.015-6.546-1.015l-8.199-21.234c-1.891-4.887-2.942-7.728-4.448-12.317c0.094,1.607,0.137,3.38,0.137,5.489
		c0,5.364-0.098,10.295-0.21,16.005c-0.063,3.181-0.128,6.469-0.185,10.206c-0.007,0.335,0-0.011-0.006,0.302
		c0,0-1.874-0.204-4.204-0.375C82.822,51.078,81.268,50.96,81.268,50.96z"/>
	<path fill="#0089CF" d="M154.6,65.438c-0.144,0-0.281-0.067-0.369-0.184c-0.098-0.129-0.122-0.301-0.061-0.452
		c0.59-1.466,1-2.564,1.321-4.404c0.799-4.372,0.865-9.868,0.865-14.677V25.835l-0.01-0.628c-0.148-9.466-0.183-11.714-1.791-16.668
		c-0.048-0.148-0.019-0.311,0.079-0.432c0.088-0.111,0.222-0.174,0.361-0.174c0.015,0,0.03,0,0.044,0.002l0.177,0.017
		c1.666,0.159,4.767,0.454,12.858,0.454c6.384,0,15.299-0.27,20.196-0.473c0.006,0,0.013,0,0.019,0c0.123,0,0.241,0.049,0.328,0.135
		c0.091,0.091,0.14,0.217,0.135,0.346c-0.029,0.742-0.07,1.428-0.111,2.091c-0.064,1.098-0.127,2.135-0.127,3.257
		c0,1.25,0.071,2.415,0.235,3.894c0.022,0.201-0.087,0.392-0.27,0.474c-0.062,0.027-0.126,0.041-0.19,0.041
		c-0.128,0-0.254-0.054-0.344-0.154c-2.417-2.698-5.2-3.476-14.639-3.476c-2.876,0-4.611,0.066-7.643,0.216
		c-0.139,2.881-0.217,5.974-0.217,8.554v8.171c3.055,0.226,5.329,0.361,9.367,0.361c1.22,0,4.935,0,7.018-0.538
		c1.519-0.36,2.163-0.903,3.139-1.726l0.087-0.074c0.086-0.072,0.191-0.109,0.298-0.109c0.08,0,0.159,0.02,0.23,0.061
		c0.168,0.096,0.259,0.287,0.227,0.479c-0.325,1.938-0.47,3.185-0.47,5.447c0,2.01,0.151,3.151,0.468,4.806
		c0.034,0.18-0.041,0.363-0.191,0.468c-0.079,0.055-0.171,0.083-0.264,0.083c-0.083,0-0.167-0.023-0.241-0.069
		c-2.045-1.252-2.847-1.604-5.44-1.907c-2.523-0.232-4.912-0.332-7.973-0.332c-1.63,0-3.52,0.026-6.253,0.088V52.27
		c0.078,6.377,0.859,6.561,9.287,6.561c0.917,0,2.824,0,5.252-0.312c5.812-0.618,7.6-2.002,9.671-3.605
		c0.085-0.066,0.189-0.1,0.293-0.1c0.094,0,0.188,0.028,0.268,0.085c0.166,0.12,0.24,0.331,0.172,0.524
		c-1.586,4.5-1.811,5.578-2.356,9.614c-0.031,0.23-0.228,0.401-0.459,0.401c-0.004,0-0.008,0-0.014,0
		c-0.682-0.021-1.492-0.059-2.521-0.109c-3.024-0.145-7.595-0.365-14.588-0.365c-7.82,0-11.39,0-15.805,0.471
		C154.633,65.437,154.616,65.438,154.6,65.438z"/>
</g>
</svg>
