<?xml version="1.0" encoding="utf-8"?>
<!-- Generator: Adobe Illustrator 16.2.1, SVG Export Plug-In . SVG Version: 6.00 Build 0)  -->
<!DOCTYPE svg PUBLIC "-//W3C//DTD SVG 1.1//EN" "http://www.w3.org/Graphics/SVG/1.1/DTD/svg11.dtd">
<svg version="1.1" id="Layer_1" xmlns="http://www.w3.org/2000/svg" xmlns:xlink="http://www.w3.org/1999/xlink" x="0px" y="0px"
	 width="50px" height="50px" viewBox="0 0 50 50" enable-background="new 0 0 50 50" xml:space="preserve">
<rect x="0" fill="#2AA8E0" stroke="#FFFFFF" stroke-width="0.5" stroke-miterlimit="10" width="50" height="50"/>
<path fill="#FFFFFF" d="M41.666,14.663c-1.227,0.544-2.544,0.912-3.928,1.077c1.413-0.846,2.497-2.186,3.008-3.783
	c-1.32,0.784-2.783,1.354-4.342,1.661c-1.248-1.331-3.027-2.161-4.993-2.161c-3.776,0-6.838,3.062-6.838,6.839
	c0,0.537,0.061,1.057,0.177,1.558c-5.684-0.284-10.721-3.006-14.095-7.146c-0.588,1.012-0.926,2.186-0.926,3.439
	c0,2.372,1.207,4.466,3.042,5.691c-1.121-0.035-2.175-0.344-3.097-0.856v0.086c0,3.313,2.358,6.077,5.485,6.706
	c-0.573,0.155-1.179,0.241-1.802,0.241c-0.44,0-0.87-0.045-1.287-0.125c0.87,2.717,3.395,4.694,6.388,4.75
	c-2.339,1.835-5.288,2.928-8.494,2.928c-0.551,0-1.095-0.033-1.63-0.096c3.026,1.938,6.621,3.071,10.485,3.071
	c12.577,0,19.455-10.419,19.455-19.457c0-0.295-0.006-0.59-0.018-0.886C39.589,17.239,40.747,16.035,41.666,14.663z"/>
</svg>
