<?xml version="1.0" encoding="utf-8"?>
<!-- Generator: Adobe Illustrator 16.2.1, SVG Export Plug-In . SVG Version: 6.00 Build 0)  -->
<!DOCTYPE svg PUBLIC "-//W3C//DTD SVG 1.1//EN" "http://www.w3.org/Graphics/SVG/1.1/DTD/svg11.dtd">
<svg version="1.1" id="Layer_1" xmlns="http://www.w3.org/2000/svg" xmlns:xlink="http://www.w3.org/1999/xlink" x="0px" y="0px"
	 width="50px" height="50px" viewBox="0 0 50 50" enable-background="new 0 0 50 50" xml:space="preserve">
<rect fill="#017BB6" stroke="#FFFFFF" stroke-width="0.5" stroke-miterlimit="10" width="49.91" height="49.908"/>
<path fill="#FFFFFF" d="M8.54,19.268h7.042v22.621H8.54V19.268z M12.063,8.021c2.251,0,4.077,1.828,4.077,4.076
	c0,2.25-1.826,4.078-4.077,4.078c-2.26,0-4.082-1.828-4.082-4.078C7.982,9.849,9.804,8.021,12.063,8.021"/>
<path fill="#FFFFFF" d="M19.996,19.268h6.744v3.091h0.096c0.938-1.78,3.233-3.654,6.657-3.654c7.117,0,8.435,4.683,8.435,10.774
	v12.409h-7.029V30.89c0-2.626-0.052-6-3.656-6c-3.662,0-4.22,2.857-4.22,5.806v11.193h-7.026V19.268z"/>
</svg>
